PathFileType	4	(X/Y/Z)	45_1_22_p0_0-226_filt_butterworth.trc
DataRate	CameraRate	NumFrames	NumMarkers	Units	OrigDataRate	OrigDataStartFrame	OrigNumFrames
60.0	60.0	7	27	m	60.0	169	226
Frame#	Time	RHip			RKnee			RAnkle			RBigToe			RSmallToe			RHeel			LHip			LKnee			LAnkle			LBigToe			LSmallToe			LHeel			Neck			Head			Nose			RShoulder			RElbow			RWrist			RThumb			RIndex			RPinky			LShoulder			LElbow			LWrist			LThumb			LIndex			LPinky			
		X1	Y1	Z1	X2	Y2	Z2	X3	Y3	Z3	X4	Y4	Z4	X5	Y5	Z5	X6	Y6	Z6	X7	Y7	Z7	X8	Y8	Z8	X9	Y9	Z9	X10	Y10	Z10	X11	Y11	Z11	X12	Y12	Z12	X13	Y13	Z13	X14	Y14	Z14	X15	Y15	Z15	X16	Y16	Z16	X17	Y17	Z17	X18	Y18	Z18	X19	Y19	Z19	X20	Y20	Z20	X21	Y21	Z21	X22	Y22	Z22	X23	Y23	Z23	X24	Y24	Z24	X25	Y25	Z25	X26	Y26	Z26	X27	Y27	Z27	
169	2.816666666666667	0.580544590789566	0.6789565599359134	0.742122852057933	0.5939008302729541	0.2113581930272545	0.7108387042783237	0.641450246752046	-0.25801954620735157	0.7754572745143459	0.6227348986639081	-0.2854140251552385	0.6425142461980222	0.6870872795873519	-0.26082763772264506	0.6300955824050807	0.6288863669215283	-0.29481403980379095	0.7844972242314469	0.37630291681789707	0.6556696243197064	0.7570020659794652	0.4246059712387423	0.19176185137192808	0.7277086241842226	0.4383827058950736	-0.29865330938473367	0.7489143331506003	0.45725644487359496	-0.2628586825890388	0.5888450001452125	0.41178796626801717	-0.26404498093403095	0.6038812059070571	0.44201582336253575	-0.34759471129714725	0.774019779283503	0.4394376763828588	1.259511690853045	0.7840943916794312	0.43110200478738003	1.5092587945610456	0.7883756468433487	0.435516237186089	1.3922900444303377	0.7184177426696138	0.6065375631947247	1.1847464150276417	0.7843600436211426	0.676467193361763	0.9320496463282719	0.7066660527851447	0.5574265908725469	0.7260667321704967	0.5714669609283627	0.4706127318575869	0.6417172041324708	0.5531267094218814	0.4687796770351746	0.6244447429669021	0.5697088704092658	0.4780171704510798	0.62421084627354	0.5790306967659214	0.28085909286447264	1.1590230546304503	0.7502104832855133	0.2568824780695725	0.8829041536055754	0.74494259335425	0.4030103645979408	0.7202195135427373	0.5799832076006424	0.49955265841248997	0.6760763809258747	0.5657682315839172	0.505668968770705	0.6376475506052894	0.5620542430416307	0.47243589264117586	0.6183613275170592	0.5784017278798318	
170	2.833333333333333	0.5793799016012245	0.6804807900982919	0.7432667816093915	0.5899566428691921	0.21426016708806814	0.7093388226264885	0.6372980461579253	-0.2531982687423987	0.7684227701960348	0.6224382770116413	-0.28605011352687487	0.6421000192180703	0.6872343352903065	-0.2628450719790767	0.6329154348569689	0.6246234275516923	-0.2896687843714632	0.7772027608721566	0.3746702995705033	0.6578184638269378	0.7589222428372132	0.4238362052143087	0.19411346629162127	0.7275898305272196	0.4368885370559219	-0.2992193148901685	0.7497359261609262	0.4605641705752227	-0.2640550198159299	0.5927365604547911	0.4144080082267608	-0.2595075931377204	0.598639847481016	0.4405219387851807	-0.3471102164433312	0.7733785227998545	0.43823231302289267	1.258626047616319	0.7838211619472447	0.4300398994423942	1.5082283711913809	0.787875971774881	0.4337387003512464	1.3917899260361217	0.713369000278343	0.6044153537853334	1.184606426700946	0.7790417428365455	0.6635470625483093	0.9255672434600476	0.7076058529616355	0.555345125712621	0.7092133594432442	0.5875912946489693	0.46989732811584595	0.6272510450703875	0.5608189523166169	0.4685849986315507	0.6100232101697168	0.5775180323563793	0.47698800245274053	0.6067810476021669	0.5955998053939455	0.2801614818854604	1.1594471234209653	0.7479168683989255	0.26153464235536117	0.8802557241986979	0.7460713224692566	0.4042602482155556	0.707258116079624	0.5840212299766337	0.49979627643141206	0.660419538686383	0.5684258049626977	0.5049113861951982	0.6261881459385155	0.5635709786040137	0.46943073327736695	0.6026578853927651	0.5928368127740115	
171	2.85	0.5781646195558188	0.6820302963092935	0.7448843696983236	0.5862604352701708	0.21680891857584977	0.7084079566483649	0.6330830841825023	-0.2482211073433313	0.7611017879001775	0.6221013085620326	-0.286645001700478	0.6414725779082542	0.6866982498912346	-0.2642230072510171	0.6349583614125262	0.6202891203519678	-0.28456403580417117	0.7694076931021884	0.3729853114022391	0.6598534239798112	0.7610811178601719	0.42309773446364	0.19626472418825927	0.7275489694215025	0.43566963939470643	-0.29930212041491344	0.7499223803853763	0.46356223724141865	-0.2655004308208924	0.5968036005321685	0.416869633764707	-0.2548018156292097	0.5929813549241044	0.43914215339414486	-0.3465957249240115	0.7726058369267913	0.43676790340443983	1.2576330476357744	0.7831769245345036	0.42939646711655094	1.5071915585922515	0.7874448389103355	0.4319192188444686	1.3909794765521368	0.7076745948530185	0.6022173161050117	1.184544377290709	0.7735199394318548	0.6517841519874195	0.9187051066103933	0.7094933511990498	0.5528427820944299	0.6951533450629408	0.6035255984758863	0.4677365993800797	0.6147521355404032	0.5733498092483529	0.4663519434505291	0.5977763331697233	0.5892790585370986	0.4752836750238348	0.5918561061330115	0.613358450974029	0.2797385609197366	1.1596673254493712	0.7462471367653107	0.2652655755361537	0.8779802438847171	0.7473874652637018	0.40483814662983353	0.6972271065202479	0.5896948079324202	0.49915858125227813	0.6478309857612939	0.5711932324697893	0.5035418835300762	0.6187041316535011	0.5660937966226357	0.46661246043560595	0.591041493626222	0.6081706108306774	
172	2.8666666666666667	0.5769614966560263	0.6834907804032766	0.7467745627656854	0.5828416233384734	0.21895634126472194	0.7080117326838329	0.6288714479983416	-0.24315220785428052	0.7536176516062081	0.6220203723294334	-0.2867867294531479	0.6403271806208594	0.6855750553072977	-0.2641814197818634	0.6352350679142142	0.6160566177497357	-0.2796304127017444	0.761417161563463	0.371261527092391	0.6617341614295398	0.7631892350770764	0.42235652123066586	0.19815025690146995	0.727666903924709	0.4347667685841214	-0.2988601995871283	0.7493935328903027	0.4660183278173103	-0.26676884055225253	0.6000320688618257	0.4188225041900389	-0.25052013769921483	0.5876631316987855	0.43787317395772746	-0.3461767285633231	0.7718573515087124	0.4351133079762617	1.256693882682459	0.7823399053926445	0.4290161074595862	1.5061540096242372	0.7871370944215504	0.43030148048396466	1.3901057819513496	0.7021876453517638	0.60009246774768	1.1846540329192718	0.7679122313374668	0.6425346419669559	0.9123004829874346	0.7118323887858793	0.5501452433560551	0.6844942414610211	0.6170503984881158	0.4643564368718945	0.6048969516836936	0.5890188916021966	0.46225941227913936	0.5878724934723216	0.6043067042444809	0.4730195292647293	0.5795362470500018	0.6309897470236489	0.2795221978107264	1.1597993330665353	0.7452730509468961	0.2675205704555105	0.8762558680765021	0.7491168409218903	0.4044469507255665	0.6901087677646375	0.5970324380650437	0.49718474445929717	0.6385445001140005	0.5748053199501686	0.5014313035657213	0.6140846523611765	0.5705819175228095	0.46423034550193654	0.583343395312196	0.622568416588141	
173	2.8833333333333333	0.5758368181852841	0.684783671580978	0.7488903909089639	0.5797128284985587	0.22086992467973718	0.7080581381527735	0.6247428296415604	-0.23800949934048077	0.7460710825958339	0.6222648822972554	-0.28618091953747327	0.6385785680895968	0.68419760831594	-0.26260545999360274	0.6336788765971708	0.6120608752126635	-0.2749453754261504	0.753450749520416	0.3694891836683065	0.6635173534629978	0.765103043421573	0.4215944148372574	0.19975517681394625	0.7280282321673726	0.4342211771112147	-0.297999657775686	0.7482663666696322	0.4676778039308528	-0.2671932353119128	0.601321758458797	0.41995066383864277	-0.24733411893601215	0.5835914989556674	0.4367607901016266	-0.3459104851602626	0.7712767819685564	0.43339306812233946	1.2558548209014746	0.7816102353043372	0.42871336058173165	1.5050620368008372	0.786909049651734	0.42911579668036104	1.3893374445686042	0.697756823013058	0.5982679173400296	1.184898348298349	0.7625365582950454	0.6365398577763034	0.9072916696127176	0.7139008518406914	0.5477609388976328	0.6772077840134526	0.627001584534095	0.46033027361305157	0.5978727123401382	0.6045991322846718	0.45736340350325033	0.5802603189652318	0.6201207843037961	0.470212351632731	0.5698319564177784	0.6469670671667129	0.2792770342195459	1.1598820809110175	0.7450373897763525	0.26809170427372336	0.8751853853607452	0.7512605598477642	0.4030788104306685	0.6853525004120005	0.6052142886483262	0.4940698774041803	0.6328933416743301	0.5791480401250864	0.49890992706252185	0.6111353780658986	0.576284429881484	0.462211824923621	0.5788120020804944	0.6338557008556702	
174	2.9	0.5748289946305655	0.6858577888117786	0.7512352920615619	0.5768682477662032	0.2228387842586002	0.7082236514737739	0.6207872102645388	-0.23284857495793204	0.7385683424911572	0.6227736185958705	-0.28467648426741937	0.6362728324460567	0.6829474371636024	-0.2599518723855202	0.6310685063298972	0.6083744764094602	-0.2706035626169767	0.7456725999123544	0.3677082335093323	0.6652430537960955	0.7667972498791398	0.42089767846315734	0.20106473951584267	0.7286273939205715	0.43405783309662754	-0.29684500721151263	0.7468420337292889	0.46849523595139686	-0.26649425930861476	0.6002511108205565	0.42006971066807264	-0.24578338305501815	0.5814600724343854	0.43590560701622144	-0.34577698110645055	0.7709794501936112	0.43181284214609517	1.255159049392734	0.7811151781066722	0.4283472449515037	1.503941350850625	0.7866915530454762	0.4284332466038301	1.3887942187269726	0.6947136818281802	0.5969224613145615	1.1851977971623704	0.7577984332864621	0.6338664393894219	0.9045013035652681	0.7151312125705812	0.5462071984942709	0.6727977509942464	0.6336822005153688	0.4564774186079815	0.5932987014250283	0.6169694473272689	0.4530320441395155	0.575016943275754	0.6335668830153145	0.4669313267596704	0.5631732649606672	0.6595057384272469	0.27873192823361115	1.1599006429394336	0.7452807986140009	0.2671405419891558	0.8745247827093129	0.75361817228076	0.40096017358720515	0.6823133132465121	0.612849474505478	0.49037750452950346	0.630849958330161	0.5836147921234767	0.49641738868545304	0.609179334317684	0.5817418317080403	0.46017078664849675	0.576701322441248	0.6407296212345184	
175	2.9166666666666665	0.5739620426217926	0.6867595295831331	0.7535774897450818	0.5743442154502897	0.22488766234987864	0.7082379573782611	0.6171122325231418	-0.22786355120385166	0.7313131880949265	0.6235272250634715	-0.28233163560574903	0.6335929620241814	0.682056331126113	-0.256610255409507	0.6281053265706041	0.6050429799520233	-0.26673367713273827	0.7382494155385738	0.3660264144208184	0.6668716823722288	0.7682736975878428	0.4203941357491092	0.20197472018077828	0.729452488857995	0.4342366450153835	-0.29549776179986464	0.7454526965060122	0.46868306469609433	-0.26517810578422163	0.5975466674095732	0.4193691781447458	-0.24585754392343556	0.5811514347704764	0.43540962449816806	-0.34569324581988675	0.7710144321990843	0.43059509451233136	1.2547422712318335	0.780596900595873	0.4278716345618341	1.502960831959926	0.7864797230056862	0.428074373748744	1.3886081532414232	0.6926419527088423	0.5960363699649314	1.1855767490841465	0.7539592694814545	0.6338761949826578	0.9042706315795898	0.7154819966359021	0.5456353389009667	0.6706388331080076	0.6380541496593206	0.4535010033313768	0.5907667269153489	0.6243370779944506	0.4500528614870951	0.5724178100559647	0.6424422145689942	0.46350655018721393	0.5602087876952258	0.6669828058684089	0.27775409434607945	1.1598295548796498	0.7455715016673751	0.26509952054221164	0.8737745021508074	0.7558866833602349	0.39842625277915955	0.6806135711514344	0.6188397153302265	0.48674357261821727	0.631772216362805	0.5877681700789468	0.4943059238281631	0.6080775250620006	0.5860636371673922	0.4578266517075441	0.5763450361347264	0.6436114333266987	
